<svg width="72" height="72" viewBox="0 0 72 72" fill="none" xmlns="http://www.w3.org/2000/svg">
<g clip-path="url(#clip0_3804_37632)">
<mask id="mask0_3804_37632" style="mask-type:luminance" maskUnits="userSpaceOnUse" x="0" y="0" width="72" height="72">
<path d="M72 0H0V72H72V0Z" fill="white"/>
</mask>
<g mask="url(#mask0_3804_37632)">
<mask id="mask1_3804_37632" style="mask-type:luminance" maskUnits="userSpaceOnUse" x="-1" y="-1" width="74" height="74">
<path d="M-0.25 -0.25H72.25V72.25H-0.25V-0.25Z" fill="white"/>
</mask>
<g mask="url(#mask1_3804_37632)">
<path d="M15.2858 26.9385C13.6176 26.9385 12.2649 28.2909 12.2649 29.9594V60.1675C12.2649 61.8358 13.6176 63.1885 15.2858 63.1885H65.2013C67.4258 63.1885 69.229 61.3851 69.229 59.1605V30.9663C69.229 28.7417 67.4258 26.9385 65.2013 26.9385H15.2858Z" fill="url(#paint0_linear_3804_37632)"/>
<path d="M15.8801 26.9385H65.1822C67.4171 26.9385 69.2289 28.7503 69.2289 30.9853V59.1417C69.2289 61.3767 67.4171 63.1885 65.1822 63.1885H15.8801C13.6452 63.1885 11.8333 61.3767 11.8333 59.1417V30.9853C11.8333 28.7503 13.6452 26.9385 15.8801 26.9385Z" fill="url(#paint1_linear_3804_37632)"/>
<path d="M6.79856 8.8125C4.57412 8.8125 2.77075 10.6159 2.77075 12.8403V59.1595C2.77075 61.384 4.57412 63.1874 6.79856 63.1874H63.1873C63.1873 63.1874 60.1664 62.9001 60.1664 57.817V12.8362C60.1664 10.6117 58.3632 8.8125 56.1386 8.8125H6.79856Z" fill="url(#paint2_linear_3804_37632)"/>
<path d="M10.835 50.0977H49.0797C50.1973 50.0977 51.1032 51.0036 51.1032 52.121V54.1159C51.1032 55.2334 50.1973 56.1394 49.0797 56.1394H10.835C9.71746 56.1394 8.81165 55.2334 8.81165 54.1159V52.121C8.81165 51.0036 9.71746 50.0977 10.835 50.0977Z" fill="#CDF006"/>
<path d="M35.6214 39.8255L35.1976 41.5997C34.8721 42.9578 33.6722 43.9413 32.2535 44.0466L32.0011 44.0557H28.9214C27.4785 44.0557 26.2158 43.1466 25.7906 41.8333L25.7243 41.5975L25.3009 39.8255H35.6214ZM30.4619 15.8613C36.3012 15.8613 41.0348 20.4375 41.0348 26.0825C41.0348 29.0946 39.6704 31.8534 37.0018 34.3169C36.9505 34.3645 36.9145 34.4254 36.8986 34.4924L36.1289 37.7107H24.7948L24.0277 34.4927C24.0117 34.4255 23.9757 34.3645 23.9243 34.3169C21.2542 31.8534 19.8889 29.0946 19.8889 26.0825C19.8889 20.4375 24.6226 15.8613 30.4619 15.8613Z" fill="#F3FFED"/>
</g>
</g>
</g>
<defs>
<linearGradient id="paint0_linear_3804_37632" x1="40.9678" y1="27.0841" x2="40.9469" y2="63.3861" gradientUnits="userSpaceOnUse">
<stop stop-color="#0B6413"/>
<stop offset="0.5" stop-color="#0E7012"/>
<stop offset="1" stop-color="#107C10"/>
</linearGradient>
<linearGradient id="paint1_linear_3804_37632" x1="60.8063" y1="45.0182" x2="62.956" y2="44.8917" gradientUnits="userSpaceOnUse">
<stop stop-opacity="0.5"/>
<stop offset="0.5" stop-opacity="0.25"/>
<stop offset="1" stop-opacity="0"/>
</linearGradient>
<linearGradient id="paint2_linear_3804_37632" x1="33.1005" y1="9.1908" x2="33.0286" y2="63.6044" gradientUnits="userSpaceOnUse">
<stop stop-color="#107C10"/>
<stop offset="0.5" stop-color="#218A10"/>
<stop offset="1" stop-color="#33990F"/>
</linearGradient>
<clipPath id="clip0_3804_37632">
<rect width="72" height="72" fill="white"/>
</clipPath>
</defs>
</svg>
